<?xml version="1.0" encoding="UTF-8"?>
<svg xmlns="http://www.w3.org/2000/svg" viewBox="0 0 64 64" width="64" height="64" role="img" aria-label="Partly cloudy icon">
  <defs>
    <filter id="shadow" x="-20%" y="-20%" width="140%" height="140%">
      <feOffset result="offOut" in="SourceAlpha" dx="0" dy="1" />
      <feGaussianBlur result="blurOut" in="offOut" stdDeviation="1" />
      <feBlend in="SourceGraphic" in2="blurOut" mode="normal" />
    </filter>
  </defs>
  <!-- Sun -->
  <circle cx="22" cy="22" r="9" fill="#f1c40f" />
  <!-- Sun rays -->
  <g stroke="#f1c40f" stroke-width="2" stroke-linecap="round">
    <line x1="22" y1="7" x2="22" y2="2"/>
    <line x1="22" y1="42" x2="22" y2="47"/>
    <line x1="7" y1="22" x2="2" y2="22"/>
    <line x1="42" y1="22" x2="47" y2="22"/>
    <line x1="11" y1="11" x2="7" y2="7"/>
    <line x1="33" y1="11" x2="37" y2="7"/>
    <line x1="11" y1="33" x2="7" y2="37"/>
    <line x1="33" y1="33" x2="37" y2="37"/>
  </g>
  <!-- Cloud -->
  <g filter="url(#shadow)">
    <path d="M44 30c-1.7-5-6.8-8.5-12.5-8-4.1.4-7.6 2.8-9.5 6-4.4-.7-8.5 2.2-9.2 6.6S16 43 20.4 43H45c4.4 0 8-3.6 8-8s-3.6-8-8-8z" fill="#ecf0f1" stroke="#bdc3c7" stroke-width="1" />
  </g>
</svg>
